<svg version="1.1" xmlns="http://www.w3.org/2000/svg" x="0px" y="0px" width="14.666px" height="15.069px" viewBox="0 0 14.666 15.069" enable-background="new 0 0 14.666 15.069">
	<path fill="#FF7300" d="M13.69,6.391l0.74,0.774c0.157,0.157,0.235,0.348,0.235,0.572c0,0.224-0.078,0.415-0.235,0.572
		l-6.526,6.526c-0.157,0.157-0.348,0.235-0.572,0.235c-0.224,0-0.415-0.078-0.572-0.235L0.235,8.308C0.078,8.151,0,7.961,0,7.736
		c0-0.224,0.078-0.415,0.235-0.572l0.74-0.774c0.157-0.157,0.348-0.23,0.572-0.219c0.224,0.011,0.415,0.095,0.572,0.252
		l3.868,4.036V0.807c0-0.224,0.078-0.415,0.235-0.572C6.38,0.078,6.57,0,6.795,0h1.076c0.224,0,0.415,0.078,0.572,0.235
		s0.235,0.348,0.235,0.572v9.654l3.868-4.036c0.157-0.157,0.348-0.241,0.572-0.252C13.343,6.161,13.533,6.234,13.69,6.391z"/>
</svg>
