<svg xmlns="http://www.w3.org/2000/svg" x="0px" y="0px" width="1366px" height="507.716px" viewBox="0 0 1366 507.716">
<g opacity="0.1">
	<g>
		<path fill="#000" d="M0,496.323c48.999-41.234,97.785-82.724,147.102-123.578c19.987-16.557,41.13-31.726,60.414-46.506
			c-7.225-2.509-7.225-2.509-44.386,17.379c-0.757-1.13-1.514-2.26-2.271-3.389c10.213-6.256,20.363-12.618,30.68-18.698
			c2.821-1.662,6.457-2.009,9.152-3.805c2.763-1.842,4.831-4.72,7.204-7.145c-3.572-1.262-7.465-4.137-10.661-3.505
			c-13.06,2.585-25.908,6.242-40.349,7.999c13.09-7.909,26.18-15.818,41.745-25.222c-9.444-5.253-17.724-9.859-26.003-14.464
			c0.807-0.567,1.614-1.134,2.421-1.701c-1.775-2.026-3.551-4.052-5.842-6.667c19.185-0.738,31.687,8.29,39.319,23.96
			c12.974,26.638,31.026,48.645,56.109,64.704c2.755,1.764,5.603,3.384,11.429,6.888c-5.193-11.524-9.069-20.127-12.946-28.731
			c0.71-0.47,1.42-0.941,2.13-1.411c3.655,5.362,7.165,10.831,11.004,16.06c4.483,6.106,8.644,12.64,14.08,17.797
			c4.758,4.514,11.09,7.378,16.726,10.971c1.151-0.95,2.301-1.899,3.452-2.849c-2.525-8.106-5.05-16.211-7.575-24.317
			c13.417,23.732,37.273,30.058,59.779,40.42c24.249,11.164,45.717,28.351,68.37,42.953c7.536,4.858,14.986,9.849,24.834,13.261
			c-0.819-1.972-1.638-3.944-2.456-5.906c7.92,7.086,16.594,11.356,27.489,7.369c-1.888,2.363-3.776,4.726-5.398,6.755
			c17.505-1.447,25.498-15.561,15.459-30.006c-4.735-6.813-11.556-12.641-18.475-17.411
			c-38.844-26.783-75.633-55.729-105.257-92.937c-5.186-6.514-12.281-11.515-17.101-19.776c6.659,4.153,14.85,7.022,19.654,12.729
			c9.58,11.379,17.29,8.475,25.953-0.147c2.882-2.869,6.194-5.308,11.759-5.64c-4.39,4.852-9.204,9.399-13.01,14.67
			c-2.241,3.104-2.882,7.357-4.243,11.094c4.353,0.451,9.521,2.6,12.887,0.993c6.735-3.214,12.425-8.569,18.658-12.881
			c4.972-3.44,10.109-6.643,16.76-8.216c-2.108,2.431-4.215,4.862-8.036,9.27c13.115,1.037,24.649,2.229,36.214,2.785
			c11.557,0.556,21.157-2.127,21.911-17.604c1.377,21.492,19.523,20.885,32.283,24.833c16.987,5.256,21.594,2.402,31.304-9.75
			c0.978,18.484,20.882,40.702,35.649,40.185c-0.532,3.983-3.04,9.56-1.281,11.795c9.633,12.24,20.192,23.77,30.733,35.27
			c2.14,2.335,5.558,4.891,8.405,4.912c6.223,0.046,12.457-1.472,18.687-2.35c-1.202-5.152-1.589-10.682-3.78-15.374
			c-4.2-8.991-9.425-17.505-14.224-26.217c8.094,11.736,17.414,22.849,23.841,35.432c4.11,8.048-1.433,14.285-10.934,15.663
			c-14.505,2.105-24.582-5.299-33.336-15.314c-7.206-8.244-14.046-16.806-23.335-27.976c5.178,31.152,9.997,57.897,13.813,84.784
			c0.893,6.289,0.106,17.53-2.909,18.683c-6.436,2.461-14.856-0.012-22.422-0.843c-2.741-0.301-5.796-3.049-7.97-2.361
			c-18.224,5.769-27.159,1.191-33.33-16.236c-5.283-14.922-10.72-29.967-18.05-43.934c-5.842-11.13-14.641-20.715-24.209-33.841
			c-0.823,12.257-1.673,19.465-1.608,26.666c0.025,2.83,1.348,6.42,3.355,8.333c11.59,11.043,13.356,23.413,6.213,37.405
			c-7.933,15.541-21.305,10.477-35.121,8.753c-2.812,3.982-6.023,8.537-9.241,13.087c-8.329,11.773-18.978,11.805-24.812-1.3
			c-3.467-7.787-2.513-17.424-4.537-25.996c-1.345-5.697-3.34-11.926-7.033-16.21c-4.535-5.261-11.161-8.721-16.854-12.998
			c-20.857-15.666-43.38-26.862-70.137-28.406c-39.368-2.272-69.995-22.672-96.559-49.53c-7.587-7.671-14.132-9.293-22.141-4.213
			c-17.183,10.899-35.14,21.099-50.511,34.228C105.231,414.662,52.8,461.404,0,507.716C0,503.918,0,500.121,0,496.323z
			 M426.701,327.101c5.234,2.034,11.528,2.855,15.512,6.32c14.547,12.652,28.639,25.872,42.283,39.495
			c9.571,9.556,16.547,22.8,33.715,19.212c-8.678,11.867-0.277,30.913,10.392,33.72c3.474,13.782,5.041,26.086,9.977,36.852
			c2.267,4.944,11.148,6.87,17.03,10.164c0.361-5.971,1.059-11.949,0.93-17.91c-0.058-2.684-1.629-5.392-2.75-7.987
			c-8.212-19.022-16.288-38.107-24.817-56.987c-4.55-10.072-8.689-20.714-15.309-29.348c-5.113-6.669-14.784-9.684-20.711-15.942
			c-18.584-19.618-41.888-19.312-65.78-17.221c-3.663,2.69-7.327,5.38-10.945,8.037c4.878,5.072,8.436,12.128,13.373,13.275
			c14.767,3.432,13.719,15.328,18.226,25.485c4.293,9.674,14.209,16.865,21.654,25.148c1.331-0.973,2.662-1.947,3.993-2.92
			c-0.406-4.434-0.812-8.867-1.254-13.704c2.162,1.297,4.04,2.424,5.918,3.55c-2.647-9.192-6.71-17.67-12.954-24.013
			C453.001,349.954,439.599,338.775,426.701,327.101z M533.28,378.556c5.97,16.94,6.988,36.892,31.308,41.428
			c-4.527,2.18-7.875,3.792-11.702,5.635c4.826,11.924,8.492,23.249,13.978,33.614c2.87,5.423,8.253,10.424,13.717,13.378
			c9.423,5.094,14.894,0.795,12.886-9.684c-5.312-27.72-10.152-55.585-16.955-82.953c-8.115-32.65-38.118-50.339-71.445-42.297
			c13.65,12.744,17.276,34.975,41.599,35.362C542.507,374.752,538.348,376.467,533.28,378.556z M455.605,459.34
			c-0.017-1.797-0.035-3.594-0.052-5.39c-8.313-1.041-16.626-2.081-24.939-3.122c1.717,7.579,1.024,19.293,5.608,21.95
			C449.239,480.324,449.261,464.433,455.605,459.34z M431.86,372.493c-4.36-19.404-8.534-22.536-22.978-19.236
			C417.012,360.063,424.436,366.278,431.86,372.493z"/>
		<path fill="#000" d="M618.288,345.499c-3.383-3.511-7.72-6.499-9.991-10.62c-13.716-24.888-34.393-41.73-60.666-51.318
			c-21.781-7.949-44.345-13.745-66.246-21.397c-9.708-3.392-18.635-9.007-26.901-16.138c7.012,2.747,14.023,5.493,21.035,8.24
			c-13.202-15.087-27.345-26.193-49.045-26.313c-20.181-0.112-40.338-4.598-61.174-5.567c7.509,3.42,15.019,6.839,22.528,10.259
			c-0.257,0.829-0.513,1.657-0.77,2.486c-9.896-3.152-19.754-6.428-29.694-9.435c-36.321-10.989-72.546-22.322-109.047-32.682
			c-28.854-8.19-57.557-5.661-85.347,5.24C108.578,219.589,54.316,241.257,0,262.787c0-2.848,0-5.696,0-8.544
			c39.087-14.585,78.129-29.291,117.28-43.705c21.372-7.869,42.771-15.728,64.441-22.715c26.702-8.609,53.372-7.204,79.649,2.582
			c55.314,20.6,113.331,27.408,171.555,32.477c15.07,1.312,28.224,5.301,38.344,16.073c14.432,15.36,31.634,25.06,51.983,30.045
			c6.858,1.68,13.197,5.366,19.97,7.518C579.024,287.896,603.619,311.294,618.288,345.499z"/>
		<path fill="#000" d="M0,476.387c11.7-8.581,23.4-17.162,35.1-25.744c0.802,0.818,1.603,1.636,2.405,2.454
			C25.003,464.658,12.502,476.219,0,487.779C0,483.982,0,480.185,0,476.387z"/>
		<path fill="#000" d="M480.949,448.192c-10.895,3.987-19.569-0.282-27.489-7.369c1.292-3.515,2.121-7.288,3.969-10.473
			c4.786-8.249,10.047-15.12,20.802-6.786C487.318,430.606,488.569,438.796,480.949,448.192z"/>
		<path fill="#000" d="M312.653,276.188c-9.787-11-19.575-22-29.362-33.001c0.251-0.234,0.502-0.467,0.753-0.701
			c10.266,10.502,20.532,21.003,30.798,31.505C314.112,274.724,313.382,275.456,312.653,276.188z"/>
	</g>
	<g>
		<path fill="#000" d="M933.564,133.589c-5.479,3.404-10.68,9.125-16.483,9.814c-26.306,3.126-52.836,7.125-79.182,6.495
			c-36.589-0.875-72.141-1.456-106.553,14.666c-22.51,10.546-46.98,16.869-70.219,25.979c-4.921,1.929-8.307,7.753-12.401,11.782
			c5.107,4.472,9.883,12.251,15.384,12.799c16.946,1.69,34.169,0.616,52.179,0.616c0.911-7.083,1.57-12.21,2.606-20.271
			c12.185,22.963,29.477,13.611,43.146,8.426c7.749-2.94,11.945-15.201,16.473-21.5c5.895,31.437,36.524,21.73,60.814,29.267
			c1.724-10.973,3.024-19.24,4.323-27.507c5.979,20.448,14.296,38.033,35.792,44.314c6.427,1.878,14.183-0.767,24.407-1.587
			c-6.228-10.314-10.156-16.818-15.449-25.583c10.509,5.267,18.658,12.328,27.283,12.964c12.314,0.908,15.518-8.447,10.601-20.121
			c16.98,5.565,27.579-1.97,42.906-29.08c6.594,15.669,6.255,15.256-7.17,26.23c-12.466,10.189-23.02,23.045-36.373,31.733
			c-18.021,11.726-37.917,20.584-57.005,30.68c-7.681,4.063-15.351,8.146-19.32,10.252c5.316,15.044,16.091,30.069,12.329,38.999
			c-4.224,10.027-21.239,16.399-37.813,8.205c13.8-3.573,25.718-6.659,37.636-9.744c0.65-2.288,1.3-4.576,1.95-6.864
			c-7.789-6.879-18.006-20.871-22.882-19.215c-11.595,3.938-22.083,14.119-30.246,24.046c-5.296,6.44,7.343,21.508,19.794,24.682
			c23.815,6.071,44.592-1.204,65.315-13.058c25.945-14.841,52.813-28.199,79.962-40.735c6.72-3.103,16.15-1.369,24.178-0.473
			c30.214,3.371,59.976,4.879,88.99-7.578c52.021-22.336,68.371-69.373,40.628-118.585c-0.701-1.244-0.578-2.951,1.721-5.977
			c8.104,11.972,16.209,23.945,21.851,32.28c22.112-1.328,42.277-1.437,62.105-4.073c16.466-2.188,32.513-7.442,48.795-11.122
			c3.573-0.808,7.354-0.703,11.315,0.758c-26.663,7.559-53.179,15.692-80.031,22.512c-25.598,6.501-38.732,26.555-53.646,45.321
			c-14.096,17.736-28.182,35.732-44.393,51.435c-7.826,7.58-20.523,10.156-31.661,15.297c1.592,3.219,3.459,6.995,4.096,8.283
			c-20.534-7.035-42.458-14.546-64.382-22.058c-0.853,1.521-1.706,3.042-2.559,4.564c3.608,5.127,7.215,10.255,12.375,17.589
			c-12.222-5.933-21.941-13.197-32.619-15.093c-9.978-1.772-20.973,2.151-35.43,4.093c7.947,8.305,12.339,12.896,19.657,20.544
			c-9.658-2.592-15.466-4.884-21.469-5.638c-28.39-3.567-55.16,18.624-57.9,47.464c-0.63,6.63,0.005,14.131-2.921,19.663
			c-12.194,23.047-5.897,46.677-4.415,75.349c7.668-5.684,14.391-8.354,17.303-13.27c7.944-13.412,6.333-27.184-3.161-38.883
			c21.391,1.248,22.792-15.86,25.346-29.155c1.173-6.107-6.149-13.838-9.734-21.065c21.522,8.403,36.562-7.775,53.951-19.458
			c13.954-9.374,28.596-5.382,43.18,2.006c9.078,4.599,21.344,10.313,29.674,7.67c28.594-9.073,58.519-10.078,84.721-32.751
			c26.133-22.613,53.343-42.968,72.91-71.885c1.058-1.564,3.383-2.275,9.391-6.112c-5.439,9.308-8.464,14.486-11.453,19.6
			c58.741,8.84,116.479,17.53,174.218,26.219c0,3.347,0,6.694,0,10.04c-46.108-8.238-92.352-15.799-138.267-24.998
			c-23.075-4.623-39.951-1.087-57.935,16.982c-22.099,22.204-49.413,39.586-75.826,57.01c-11.232,7.41-25.599,11.112-39.083,13.836
			c-15.512,3.134-31.424-1.221-41.936,18.533c-7.826,14.707-15.859,27.362-13.9,44.602c0.67,5.898,0.612,13.528-2.561,17.844
			c-5.409,7.356-12.665,15.953-20.746,18.136c-11.294,3.052-16.257-7.793-18.116-17.469c-5.259-27.359-10.631-54.867,3.331-82.331
			c-24.934,7.84-29.113,11.455-36.722,33.536c-6.651,19.299-11.607,39.268-19.577,57.982c-3.107,7.296-11.783,12.961-19.084,17.516
			c-5.677,3.541-13.413,3.598-19.779,6.279c-13.304,5.604-24.424,2.346-27.696-11.473c-7.35-31.037-20.864-61.644-9.466-94.739
			c2.932-8.513,0.904-14.534-8.372-20.255c-23.598-14.553-21.722-37.403,2.493-51.781c13.862-8.231,27.364-17.121,40.562-26.374
			c3.771-2.643,5.914-7.596,8.83-11.524c-12.657-13.877-27.762-16.898-44.471-21.627c-46.812-13.247-90.056,3.719-134.831,7.664
			c-12.62,1.112-26.295-2.472-38.442-6.81c-4.849-1.732-9.862-11.608-9.331-17.266c0.512-5.449,7.103-12.669,12.711-14.916
			c30.96-12.401,61.709-26.618,93.953-34.153c28.844-6.741,59.571-5.226,89.395-8.095
			C871.989,140.924,902.758,137.061,933.564,133.589z M853.598,392.547c17.94-8.215,24.707-15.582,24.122-31.749
			c-0.267-7.372-7.183-14.505-11.401-22.336c0.856-0.298,4.948-1.723,10.759-3.746c-14.362,0.656-26.401,1.206-37.722,1.723
			c-16.789,36.193-4.385,71.121,3.993,106.012c2.314,9.639,14.58,11.579,21.665,4.657
			C877.954,434.466,871.544,400.691,853.598,392.547z M982.583,377.5c6.256-5.172,16-11.047,22.757-19.343
			c9.337-11.463-0.264-21.115-8.883-25.658c-7.803-4.113-20.461-10.773-27.454,1.912c-15.991,29.007-14.582,59.666-5.257,90.36
			c2.88,9.478,10.754,12.395,18.367,6.938c14.976-10.737,11.954-27.675,10.507-42.663
			C992.115,383.817,984.252,379.296,982.583,377.5z"/>
		<path fill="#000" d="M1366,13.387c-20.325,7.274-40.977,13.761-60.905,21.993c-36.005,14.874-70.966,32.609-111.309,33.185
			c-7.664,0.109-15.868,1.594-22.838,4.667c-44.381,19.566-91.258,26.362-139.017,32.585c-33.698,4.391-66.123,18.508-99.117,28.283
			c33.231-22.329,71.153-31.6,109.897-36.496c41.746-5.275,82.947-11.249,121.487-29.367c6.437-3.026,13.916-4.853,21.031-5.274
			c50.405-2.987,94.669-24.381,139.217-45.173C1338.092,11.42,1352.138,5.906,1366,0C1366,4.462,1366,8.925,1366,13.387z"/>
		<path fill="#000" d="M1200.683,198.991c41.413-28.013,89.675-6.317,133.25-22.316c0.338,2.787,0.675,5.574,1.013,8.361
			C1290.192,189.688,1245.438,194.34,1200.683,198.991z"/>
		<path fill="#000" d="M1227.926,223.34c30.984,0,61.968,0,92.952,0c-0.024,2.605-0.048,5.211-0.072,7.816
			c-30.792-1.477-61.584-2.954-92.376-4.431C1228.261,225.597,1228.094,224.469,1227.926,223.34z"/>
	</g>
</g>
</svg>
