<svg xmlns="http://www.w3.org/2000/svg" x="0px" y="0px" width="48.779px" height="51.501px" viewBox="0 0 48.779 51.501" enable-background="new 0 0 48.779 51.501" >
<path fill="#FF7300" d="M48.779,22.734V8.535h-5.96L44.291,0H32.74l-1.471,8.535h-8.019L24.72,0H13.169l-1.472,8.535H2.281v14.199
	h6.99l-0.956,5.739H0v14.2h5.886l-1.545,8.829h11.551l1.545-8.829h8.019l-1.545,8.829h11.551l1.545-8.829h9.491v-14.2h-7.063
	l0.956-5.739H48.779z M34.492,32.88c-0.058,0.085-0.116,0.17-0.173,0.255c-0.52,0.582-1.051,0.83-1.338,0.938
	c-0.127,0.048-0.328,0.121-0.603,0.154c-0.524,0.063-0.878-0.076-1.22-0.152c-0.618-0.137-1.122-0.053-1.637,0.034
	c-0.863,0.145-1.424,0.486-2.369,0.636c-0.06,0.01-0.389,0.058-0.749-0.077c-0.126-0.047-0.342-0.131-0.414-0.329
	c-0.025-0.068-0.032-0.147-0.008-0.266c0.05-0.247,0.203-0.475,0.744-0.993c0.18-0.172,0.269-0.258,0.402-0.359
	c0.294-0.225,0.853-0.574,1.604-0.673c0.381-0.05,0.672-0.017,0.915,0.012c1.118,0.134,1.418,0.58,2.237,0.539
	c0.202-0.01,0.5-0.054,0.857-0.216c0.719-0.318,1.368-0.729,1.802-1.414c0.055,0.145,0.11,0.29,0.165,0.435
	C34.832,31.924,34.756,32.416,34.492,32.88z M34.642,23.269c-0.034,0.286-0.06,0.514-0.076,0.65
	c-0.112,0.986-0.143,1.365-0.235,2.028c-0.034,0.242-0.063,0.435-0.079,0.537c-0.034,0.26-0.068,0.519-0.103,0.779
	c-0.079,0.436-0.158,0.873-0.236,1.309c-0.24,0.632-0.411,1.296-0.839,1.842c-0.135,0.173-0.267,0.352-0.483,0.439
	c-0.094,0.044-0.188,0.088-0.282,0.131c-0.23,0.074-0.7,0.184-1.106-0.041c-0.313-0.174-0.517-0.509-0.705-1.425
	c-0.132-0.645-0.263-1.612-0.18-2.837c-0.009-2.954-0.034-3.761-0.049-4.022c-0.006-0.094-0.033-0.374-0.034-0.363
	c-0.001,0.072-0.004,0.145-0.012,0.217c-0.013,0.055-0.037,0.104-0.072,0.148c-0.047,0.078-0.068,0.158-0.026,0.246
	c-0.044,0.091-0.043,0.188-0.043,0.285c0.001,0.096-0.028,0.19-0.042,0.285c-0.145,1.334-0.297,2.505-0.429,3.537
	c-0.086,0.671-0.334,1.213-0.74,2.313c-0.072,0.193-0.218,0.58-0.557,0.965c-0.143,0.163-0.313,0.357-0.599,0.496
	c-0.087,0.042-0.734,0.347-1.34,0.043c-0.441-0.221-0.675-0.62-0.778-1.057c-0.08-0.337-0.18-0.814-0.261-1.391
	c-0.054-0.384-0.098-0.809-0.133-1.476c-0.101-1.929-0.046-2.409-0.137-3.667c-0.028-0.382-0.156-0.743-0.237-1.113
	c-0.032-0.053,0.005-0.131-0.062-0.167c0.014,0.053,0.001,0.1-0.01,0.149c0,0-0.017,0.247-0.034,0.474
	c-0.044,0.561-0.297,1.682-0.304,2.546c-0.001,0.091-0.03,0.381-0.035,0.777c-0.001,0.119-0.01,0.238-0.038,0.355
	c0.005,0.319,0,0.775-0.047,1.321c-0.061,0.7-0.109,1.256-0.343,1.922c-0.235,0.669-0.43,1.249-1.009,1.595
	c-0.867,0.518-1.779,0.333-2.322-0.518c-0.165-0.259-0.303-0.532-0.34-0.844c-0.16-1.344-0.14-3.338-0.122-3.867
	c0.026-0.769-0.033-1.856-0.422-3.189c-0.096,0.106-0.028,0.23-0.044,0.345c-0.052,0.407-0.076,0.738-0.088,0.966
	c-0.02,0.368-0.016,0.591-0.079,0.966c-0.017,0.102-0.026,0.133-0.077,0.413c-0.05,0.273-0.089,0.497-0.115,0.647
	c-0.189,0.755-0.219,1.546-0.508,2.278c-0.212,0.798-0.472,1.566-1.235,2.029c-0.438,0.193-0.877,0.113-1.316,0.007
	c-0.646-0.353-0.926-0.96-1.125-1.623c-0.036-0.221-0.074-0.445-0.115-0.669c-0.192-1.066-0.421-2.085-0.675-3.055
	c-0.081-0.468-0.163-0.936-0.244-1.403c-0.044-0.222-0.352-1.872,0.335-3.054c0,0,0.377-0.672,1.006-1.042
	c0.092-0.054,0.274-0.161,0.538-0.199c0.143-0.02,0.264-0.013,0.347-0.003c0.734,0.123,1.428,0.461,2.195,0.407
	c0.319-0.058,0.542-0.272,0.773-0.473c0.818-0.714,1.715-0.895,2.747-0.494c1.319,0.513,2.613,0.387,3.829-0.322
	c0.626-0.365,1.268-0.564,1.99-0.483c0.283-0.073,0.504,0.122,0.759,0.173c0.522,0.177,1.059,0.168,1.598,0.133
	c0.303-0.233,0.58-0.434,0.822-0.603c0.169-0.118,0.559-0.388,0.994-0.542c0.066-0.023,0.156-0.052,0.273-0.065
	c0.106-0.012,0.256-0.013,0.569,0.078c0.304,0.088,0.492,0.142,0.711,0.293c0.114,0.079,0.283,0.215,0.439,0.436
	c0.108,0.19,0.216,0.381,0.324,0.571c0.07,0.164,0.14,0.347,0.202,0.549c0.054,0.172,0.095,0.336,0.128,0.488
	c0.016,0.128,0.032,0.255,0.048,0.383c0.006,0.058,0.011,0.117,0.017,0.175C34.761,21.083,34.8,22.179,34.642,23.269z"/>
</svg>
