<svg xmlns="http://www.w3.org/2000/svg" x="0px" y="0px" width="114.764px" height="37.844px" viewBox="0 0 114.764 37.844">
<g>
	<g>
		<g>
			<path fill="#FF7300" d="M37.508,7.527l-1,3.028h-1.285l3.271-9.626h1.5l3.284,9.626h-1.328l-1.028-3.028H37.508z M40.664,6.555
				l-0.942-2.771c-0.215-0.629-0.357-1.2-0.5-1.757h-0.028c-0.144,0.571-0.301,1.157-0.486,1.742l-0.942,2.785H40.664z"/>
			<path fill="#FF7300" d="M52.421,11.969c-1.3-0.343-2.57-0.729-3.685-1.114c-0.2-0.071-0.4-0.143-0.586-0.143
				c-2.285-0.086-4.241-1.771-4.241-4.87c0-3.085,1.885-5.07,4.484-5.07c2.613,0,4.313,2.028,4.313,4.87
				c0,2.471-1.143,4.056-2.742,4.613v0.057c0.957,0.243,1.999,0.471,2.813,0.614L52.421,11.969z M51.393,5.699
				c0-1.928-1-3.914-3.042-3.914c-2.1,0-3.128,1.942-3.113,4.028c-0.015,2.042,1.114,3.885,3.057,3.885
				C50.278,9.698,51.393,7.898,51.393,5.699z"/>
			<path fill="#FF7300" d="M55.568,0.929v5.698c0,2.157,0.956,3.071,2.242,3.071c1.428,0,2.342-0.943,2.342-3.071V0.929h1.257v5.613
				c0,2.957-1.557,4.17-3.642,4.17c-1.971,0-3.456-1.128-3.456-4.113v-5.67H55.568z"/>
			<path fill="#FF7300" d="M68.553,6.041h-3.742v3.471h4.171v1.042h-5.413V0.929h5.198v1.042h-3.956v3.042h3.742V6.041z"/>
			<path fill="#FF7300" d="M70.597,0.929h1.243v8.583h4.113v1.042h-5.356V0.929z"/>
			<path fill="#FF7300" d="M78.898,7.527l-1,3.028h-1.285l3.271-9.626h1.5l3.284,9.626h-1.328l-1.028-3.028H78.898z M82.054,6.555
				l-0.942-2.771c-0.215-0.629-0.357-1.2-0.5-1.757h-0.028c-0.144,0.571-0.301,1.157-0.486,1.742l-0.942,2.785H82.054z"/>
			<path fill="#FF7300" d="M36.967,13.513h10.036v2.018h-7.631v6.193h7.051v1.991h-7.051v8.433h-2.405V13.513z"/>
			<path fill="#FF7300" d="M66.357,22.637c0,6.415-3.898,9.815-8.654,9.815c-4.921,0-8.378-3.815-8.378-9.456
				c0-5.917,3.678-9.788,8.654-9.788C63.067,13.208,66.357,17.107,66.357,22.637z M51.897,22.941c0,3.981,2.156,7.548,5.944,7.548
				c3.815,0,5.972-3.512,5.972-7.742c0-3.705-1.936-7.576-5.944-7.576C53.887,15.171,51.897,18.848,51.897,22.941z"/>
			<path fill="#FF7300" d="M69.479,13.761c1.217-0.249,2.958-0.387,4.617-0.387c2.571,0,4.23,0.47,5.392,1.521
				c0.94,0.83,1.466,2.101,1.466,3.539c0,2.461-1.549,4.092-3.512,4.755v0.083c1.438,0.498,2.295,1.825,2.737,3.76
				c0.608,2.599,1.051,4.396,1.438,5.115h-2.488c-0.304-0.525-0.719-2.129-1.244-4.452c-0.553-2.571-1.549-3.539-3.732-3.622h-2.268
				v8.074h-2.405V13.761z M71.884,22.249h2.461c2.571,0,4.202-1.41,4.202-3.539c0-2.405-1.741-3.456-4.285-3.484
				c-1.161,0-1.99,0.111-2.378,0.222V22.249z"/>
			<path fill="#FF7300" d="M97.458,31.539c-0.885,0.442-2.627,0.885-4.895,0.885l-0.636,1.106c1.023,0.194,1.936,0.94,1.936,2.074
				c0,1.604-1.41,2.24-2.848,2.24c-0.719,0-1.493-0.194-1.963-0.47l0.387-1.244c0.415,0.221,0.94,0.359,1.549,0.359
				c0.636,0,1.161-0.249,1.161-0.83c0-0.746-0.857-1.05-2.157-1.188l1.161-2.129c-4.562-0.553-7.824-3.788-7.824-9.345
				c0-5.834,3.954-9.788,9.732-9.788c2.322,0,3.788,0.498,4.424,0.83l-0.581,1.963c-0.912-0.442-2.212-0.774-3.76-0.774
				c-4.368,0-7.271,2.793-7.271,7.687c0,4.562,2.626,7.493,7.161,7.493c1.465,0,2.958-0.304,3.926-0.774L97.458,31.539z"/>
			<path fill="#FF7300" d="M103.594,26.286l-1.936,5.862H99.17l6.332-18.635h2.902l6.359,18.635h-2.571l-1.99-5.862H103.594z
				 M109.704,24.406l-1.825-5.364c-0.414-1.217-0.69-2.323-0.967-3.401h-0.056c-0.276,1.106-0.581,2.239-0.94,3.373l-1.824,5.392
				H109.704z"/>
		</g>
	</g>
	<path fill="#FF7300" d="M31.024,14.459V5.428h-3.79L28.17,0h-7.347l-0.936,5.428h-5.1L15.722,0H8.376L7.44,5.428h-5.99v9.031h4.445
		l-0.608,3.65H0v9.031h3.743l-0.983,5.615h7.346l0.983-5.615h5.1l-0.983,5.615h7.346l0.983-5.615h6.036v-9.031h-4.492l0.608-3.65
		H31.024z M21.937,20.912c-0.037,0.054-0.074,0.108-0.11,0.162c-0.331,0.37-0.668,0.528-0.851,0.596
		c-0.081,0.03-0.209,0.077-0.383,0.098c-0.333,0.04-0.559-0.048-0.776-0.096c-0.393-0.087-0.714-0.034-1.041,0.021
		c-0.549,0.092-0.905,0.309-1.507,0.404c-0.038,0.006-0.247,0.037-0.476-0.049c-0.08-0.03-0.217-0.084-0.263-0.209
		c-0.016-0.043-0.021-0.093-0.005-0.169c0.032-0.157,0.129-0.302,0.474-0.632c0.114-0.109,0.171-0.164,0.256-0.229
		c0.187-0.143,0.542-0.365,1.02-0.428c0.242-0.032,0.427-0.011,0.582,0.007c0.711,0.085,0.902,0.369,1.423,0.343
		c0.129-0.007,0.318-0.034,0.545-0.137c0.457-0.202,0.87-0.463,1.146-0.899c0.035,0.092,0.07,0.185,0.105,0.277
		C22.153,20.304,22.105,20.617,21.937,20.912z M22.033,14.799c-0.022,0.182-0.038,0.327-0.048,0.413
		c-0.071,0.627-0.091,0.868-0.15,1.29c-0.021,0.154-0.04,0.277-0.05,0.342c-0.022,0.165-0.043,0.33-0.065,0.495
		c-0.05,0.278-0.1,0.555-0.15,0.833c-0.153,0.402-0.262,0.824-0.534,1.171c-0.086,0.11-0.17,0.224-0.307,0.279
		c-0.06,0.028-0.12,0.056-0.179,0.083c-0.147,0.047-0.445,0.117-0.703-0.026c-0.199-0.111-0.329-0.324-0.449-0.906
		c-0.084-0.411-0.167-1.025-0.114-1.804c-0.005-1.879-0.021-2.392-0.031-2.558c-0.004-0.06-0.021-0.238-0.021-0.231
		c-0.001,0.046-0.002,0.092-0.007,0.138c-0.008,0.035-0.024,0.066-0.046,0.094c-0.03,0.049-0.044,0.101-0.016,0.156
		c-0.028,0.058-0.027,0.12-0.027,0.181c0,0.061-0.018,0.121-0.027,0.182c-0.092,0.848-0.189,1.593-0.273,2.25
		c-0.055,0.427-0.212,0.772-0.471,1.471c-0.046,0.123-0.139,0.369-0.354,0.613c-0.091,0.104-0.199,0.227-0.381,0.316
		c-0.055,0.027-0.467,0.221-0.852,0.028c-0.281-0.141-0.429-0.394-0.495-0.672c-0.051-0.214-0.115-0.518-0.166-0.885
		c-0.034-0.244-0.062-0.514-0.085-0.939c-0.064-1.227-0.029-1.532-0.087-2.332c-0.018-0.243-0.099-0.472-0.151-0.708
		c-0.02-0.034,0.003-0.083-0.039-0.106c0.009,0.034,0,0.064-0.006,0.095c0,0-0.011,0.157-0.022,0.301
		c-0.028,0.357-0.189,1.07-0.194,1.619c0,0.058-0.019,0.242-0.022,0.494c-0.001,0.076-0.006,0.151-0.024,0.226
		c0.003,0.203,0,0.493-0.03,0.84c-0.039,0.445-0.069,0.799-0.218,1.223c-0.149,0.426-0.273,0.794-0.642,1.015
		c-0.552,0.33-1.131,0.212-1.477-0.329c-0.105-0.164-0.193-0.338-0.216-0.537c-0.102-0.855-0.089-2.123-0.078-2.459
		c0.016-0.489-0.021-1.18-0.268-2.028c-0.061,0.068-0.018,0.147-0.028,0.219c-0.033,0.259-0.048,0.469-0.056,0.614
		c-0.013,0.234-0.01,0.376-0.051,0.614c-0.011,0.065-0.016,0.085-0.049,0.263c-0.032,0.174-0.057,0.316-0.073,0.412
		c-0.12,0.48-0.139,0.983-0.323,1.449c-0.135,0.508-0.3,0.996-0.785,1.291c-0.278,0.122-0.558,0.072-0.837,0.004
		c-0.411-0.225-0.589-0.611-0.716-1.032c-0.023-0.141-0.047-0.283-0.073-0.426c-0.122-0.678-0.268-1.326-0.43-1.943
		C9.084,15.595,9.032,15.297,8.981,15c-0.028-0.141-0.224-1.191,0.213-1.942c0,0,0.24-0.427,0.64-0.663
		c0.058-0.034,0.174-0.103,0.342-0.126c0.091-0.013,0.168-0.008,0.221-0.002c0.467,0.079,0.908,0.293,1.396,0.259
		c0.203-0.037,0.345-0.173,0.491-0.301c0.52-0.454,1.091-0.57,1.747-0.314c0.839,0.326,1.662,0.246,2.435-0.205
		c0.398-0.232,0.807-0.359,1.266-0.307c0.18-0.046,0.321,0.078,0.483,0.11c0.332,0.113,0.673,0.107,1.016,0.085
		c0.193-0.148,0.369-0.276,0.523-0.384c0.107-0.075,0.356-0.247,0.632-0.345c0.042-0.015,0.099-0.033,0.173-0.041
		c0.067-0.007,0.163-0.008,0.362,0.049c0.193,0.056,0.313,0.09,0.452,0.186c0.073,0.05,0.18,0.137,0.279,0.277
		c0.069,0.121,0.138,0.242,0.206,0.363c0.045,0.104,0.089,0.221,0.129,0.349c0.034,0.11,0.061,0.214,0.082,0.31
		c0.01,0.081,0.02,0.162,0.031,0.244c0.003,0.037,0.007,0.074,0.011,0.112C22.109,13.409,22.133,14.106,22.033,14.799z"/>
</g>
</svg>
